<?xml version="1.0" standalone="no"?>
<svg xmlns="http://www.w3.org/2000/svg" version="1.1" width="396" height="396">
	<!-- Created with https://api.qrserver.com (QR Code API, see goQR.me/api for information) -->
	<title>QR Code</title>
	<desc>https://github.com/ankudinov/aclabs-workshop-june-2026</desc>
	<rect style="fill:rgb(255, 255, 255);fill-opacity:1" x="0" y="0" width="396" height="396" />
	<g id="elements">
		<path style="fill:rgb(0, 0, 0)" d="M 0,0 l 12,0 0,12 -12,0 z M 12,0 l 12,0 0,12 -12,0 z M 24,0 l 12,0 0,12 -12,0 z M 36,0 l 12,0 0,12 -12,0 z M 48,0 l 12,0 0,12 -12,0 z M 60,0 l 12,0 0,12 -12,0 z M 72,0 l 12,0 0,12 -12,0 z M 108,0 l 12,0 0,12 -12,0 z M 180,0 l 12,0 0,12 -12,0 z M 192,0 l 12,0 0,12 -12,0 z M 228,0 l 12,0 0,12 -12,0 z M 240,0 l 12,0 0,12 -12,0 z M 252,0 l 12,0 0,12 -12,0 z M 264,0 l 12,0 0,12 -12,0 z M 276,0 l 12,0 0,12 -12,0 z M 312,0 l 12,0 0,12 -12,0 z M 324,0 l 12,0 0,12 -12,0 z M 336,0 l 12,0 0,12 -12,0 z M 348,0 l 12,0 0,12 -12,0 z M 360,0 l 12,0 0,12 -12,0 z M 372,0 l 12,0 0,12 -12,0 z M 384,0 l 12,0 0,12 -12,0 z M 0,12 l 12,0 0,12 -12,0 z M 72,12 l 12,0 0,12 -12,0 z M 96,12 l 12,0 0,12 -12,0 z M 108,12 l 12,0 0,12 -12,0 z M 132,12 l 12,0 0,12 -12,0 z M 144,12 l 12,0 0,12 -12,0 z M 216,12 l 12,0 0,12 -12,0 z M 240,12 l 12,0 0,12 -12,0 z M 264,12 l 12,0 0,12 -12,0 z M 312,12 l 12,0 0,12 -12,0 z M 384,12 l 12,0 0,12 -12,0 z M 0,24 l 12,0 0,12 -12,0 z M 24,24 l 12,0 0,12 -12,0 z M 36,24 l 12,0 0,12 -12,0 z M 48,24 l 12,0 0,12 -12,0 z M 72,24 l 12,0 0,12 -12,0 z M 108,24 l 12,0 0,12 -12,0 z M 120,24 l 12,0 0,12 -12,0 z M 132,24 l 12,0 0,12 -12,0 z M 168,24 l 12,0 0,12 -12,0 z M 192,24 l 12,0 0,12 -12,0 z M 216,24 l 12,0 0,12 -12,0 z M 228,24 l 12,0 0,12 -12,0 z M 240,24 l 12,0 0,12 -12,0 z M 252,24 l 12,0 0,12 -12,0 z M 276,24 l 12,0 0,12 -12,0 z M 312,24 l 12,0 0,12 -12,0 z M 336,24 l 12,0 0,12 -12,0 z M 348,24 l 12,0 0,12 -12,0 z M 360,24 l 12,0 0,12 -12,0 z M 384,24 l 12,0 0,12 -12,0 z M 0,36 l 12,0 0,12 -12,0 z M 24,36 l 12,0 0,12 -12,0 z M 36,36 l 12,0 0,12 -12,0 z M 48,36 l 12,0 0,12 -12,0 z M 72,36 l 12,0 0,12 -12,0 z M 96,36 l 12,0 0,12 -12,0 z M 108,36 l 12,0 0,12 -12,0 z M 132,36 l 12,0 0,12 -12,0 z M 192,36 l 12,0 0,12 -12,0 z M 204,36 l 12,0 0,12 -12,0 z M 216,36 l 12,0 0,12 -12,0 z M 228,36 l 12,0 0,12 -12,0 z M 276,36 l 12,0 0,12 -12,0 z M 288,36 l 12,0 0,12 -12,0 z M 312,36 l 12,0 0,12 -12,0 z M 336,36 l 12,0 0,12 -12,0 z M 348,36 l 12,0 0,12 -12,0 z M 360,36 l 12,0 0,12 -12,0 z M 384,36 l 12,0 0,12 -12,0 z M 0,48 l 12,0 0,12 -12,0 z M 24,48 l 12,0 0,12 -12,0 z M 36,48 l 12,0 0,12 -12,0 z M 48,48 l 12,0 0,12 -12,0 z M 72,48 l 12,0 0,12 -12,0 z M 120,48 l 12,0 0,12 -12,0 z M 144,48 l 12,0 0,12 -12,0 z M 156,48 l 12,0 0,12 -12,0 z M 168,48 l 12,0 0,12 -12,0 z M 180,48 l 12,0 0,12 -12,0 z M 204,48 l 12,0 0,12 -12,0 z M 216,48 l 12,0 0,12 -12,0 z M 228,48 l 12,0 0,12 -12,0 z M 240,48 l 12,0 0,12 -12,0 z M 276,48 l 12,0 0,12 -12,0 z M 312,48 l 12,0 0,12 -12,0 z M 336,48 l 12,0 0,12 -12,0 z M 348,48 l 12,0 0,12 -12,0 z M 360,48 l 12,0 0,12 -12,0 z M 384,48 l 12,0 0,12 -12,0 z M 0,60 l 12,0 0,12 -12,0 z M 72,60 l 12,0 0,12 -12,0 z M 96,60 l 12,0 0,12 -12,0 z M 120,60 l 12,0 0,12 -12,0 z M 156,60 l 12,0 0,12 -12,0 z M 168,60 l 12,0 0,12 -12,0 z M 180,60 l 12,0 0,12 -12,0 z M 192,60 l 12,0 0,12 -12,0 z M 264,60 l 12,0 0,12 -12,0 z M 288,60 l 12,0 0,12 -12,0 z M 312,60 l 12,0 0,12 -12,0 z M 384,60 l 12,0 0,12 -12,0 z M 0,72 l 12,0 0,12 -12,0 z M 12,72 l 12,0 0,12 -12,0 z M 24,72 l 12,0 0,12 -12,0 z M 36,72 l 12,0 0,12 -12,0 z M 48,72 l 12,0 0,12 -12,0 z M 60,72 l 12,0 0,12 -12,0 z M 72,72 l 12,0 0,12 -12,0 z M 96,72 l 12,0 0,12 -12,0 z M 120,72 l 12,0 0,12 -12,0 z M 144,72 l 12,0 0,12 -12,0 z M 168,72 l 12,0 0,12 -12,0 z M 192,72 l 12,0 0,12 -12,0 z M 216,72 l 12,0 0,12 -12,0 z M 240,72 l 12,0 0,12 -12,0 z M 264,72 l 12,0 0,12 -12,0 z M 288,72 l 12,0 0,12 -12,0 z M 312,72 l 12,0 0,12 -12,0 z M 324,72 l 12,0 0,12 -12,0 z M 336,72 l 12,0 0,12 -12,0 z M 348,72 l 12,0 0,12 -12,0 z M 360,72 l 12,0 0,12 -12,0 z M 372,72 l 12,0 0,12 -12,0 z M 384,72 l 12,0 0,12 -12,0 z M 144,84 l 12,0 0,12 -12,0 z M 156,84 l 12,0 0,12 -12,0 z M 180,84 l 12,0 0,12 -12,0 z M 252,84 l 12,0 0,12 -12,0 z M 264,84 l 12,0 0,12 -12,0 z M 276,84 l 12,0 0,12 -12,0 z M 0,96 l 12,0 0,12 -12,0 z M 12,96 l 12,0 0,12 -12,0 z M 24,96 l 12,0 0,12 -12,0 z M 36,96 l 12,0 0,12 -12,0 z M 48,96 l 12,0 0,12 -12,0 z M 72,96 l 12,0 0,12 -12,0 z M 84,96 l 12,0 0,12 -12,0 z M 96,96 l 12,0 0,12 -12,0 z M 108,96 l 12,0 0,12 -12,0 z M 120,96 l 12,0 0,12 -12,0 z M 144,96 l 12,0 0,12 -12,0 z M 168,96 l 12,0 0,12 -12,0 z M 180,96 l 12,0 0,12 -12,0 z M 204,96 l 12,0 0,12 -12,0 z M 228,96 l 12,0 0,12 -12,0 z M 264,96 l 12,0 0,12 -12,0 z M 276,96 l 12,0 0,12 -12,0 z M 288,96 l 12,0 0,12 -12,0 z M 300,96 l 12,0 0,12 -12,0 z M 324,96 l 12,0 0,12 -12,0 z M 348,96 l 12,0 0,12 -12,0 z M 372,96 l 12,0 0,12 -12,0 z M 0,108 l 12,0 0,12 -12,0 z M 12,108 l 12,0 0,12 -12,0 z M 36,108 l 12,0 0,12 -12,0 z M 48,108 l 12,0 0,12 -12,0 z M 60,108 l 12,0 0,12 -12,0 z M 96,108 l 12,0 0,12 -12,0 z M 108,108 l 12,0 0,12 -12,0 z M 180,108 l 12,0 0,12 -12,0 z M 192,108 l 12,0 0,12 -12,0 z M 204,108 l 12,0 0,12 -12,0 z M 216,108 l 12,0 0,12 -12,0 z M 228,108 l 12,0 0,12 -12,0 z M 240,108 l 12,0 0,12 -12,0 z M 252,108 l 12,0 0,12 -12,0 z M 276,108 l 12,0 0,12 -12,0 z M 312,108 l 12,0 0,12 -12,0 z M 360,108 l 12,0 0,12 -12,0 z M 372,108 l 12,0 0,12 -12,0 z M 384,108 l 12,0 0,12 -12,0 z M 36,120 l 12,0 0,12 -12,0 z M 72,120 l 12,0 0,12 -12,0 z M 84,120 l 12,0 0,12 -12,0 z M 96,120 l 12,0 0,12 -12,0 z M 108,120 l 12,0 0,12 -12,0 z M 132,120 l 12,0 0,12 -12,0 z M 144,120 l 12,0 0,12 -12,0 z M 204,120 l 12,0 0,12 -12,0 z M 216,120 l 12,0 0,12 -12,0 z M 240,120 l 12,0 0,12 -12,0 z M 252,120 l 12,0 0,12 -12,0 z M 324,120 l 12,0 0,12 -12,0 z M 336,120 l 12,0 0,12 -12,0 z M 348,120 l 12,0 0,12 -12,0 z M 372,120 l 12,0 0,12 -12,0 z M 12,132 l 12,0 0,12 -12,0 z M 24,132 l 12,0 0,12 -12,0 z M 36,132 l 12,0 0,12 -12,0 z M 108,132 l 12,0 0,12 -12,0 z M 120,132 l 12,0 0,12 -12,0 z M 132,132 l 12,0 0,12 -12,0 z M 168,132 l 12,0 0,12 -12,0 z M 192,132 l 12,0 0,12 -12,0 z M 216,132 l 12,0 0,12 -12,0 z M 228,132 l 12,0 0,12 -12,0 z M 252,132 l 12,0 0,12 -12,0 z M 264,132 l 12,0 0,12 -12,0 z M 288,132 l 12,0 0,12 -12,0 z M 300,132 l 12,0 0,12 -12,0 z M 312,132 l 12,0 0,12 -12,0 z M 336,132 l 12,0 0,12 -12,0 z M 360,132 l 12,0 0,12 -12,0 z M 24,144 l 12,0 0,12 -12,0 z M 60,144 l 12,0 0,12 -12,0 z M 72,144 l 12,0 0,12 -12,0 z M 84,144 l 12,0 0,12 -12,0 z M 108,144 l 12,0 0,12 -12,0 z M 132,144 l 12,0 0,12 -12,0 z M 192,144 l 12,0 0,12 -12,0 z M 204,144 l 12,0 0,12 -12,0 z M 240,144 l 12,0 0,12 -12,0 z M 264,144 l 12,0 0,12 -12,0 z M 276,144 l 12,0 0,12 -12,0 z M 288,144 l 12,0 0,12 -12,0 z M 300,144 l 12,0 0,12 -12,0 z M 324,144 l 12,0 0,12 -12,0 z M 336,144 l 12,0 0,12 -12,0 z M 348,144 l 12,0 0,12 -12,0 z M 24,156 l 12,0 0,12 -12,0 z M 36,156 l 12,0 0,12 -12,0 z M 60,156 l 12,0 0,12 -12,0 z M 96,156 l 12,0 0,12 -12,0 z M 108,156 l 12,0 0,12 -12,0 z M 120,156 l 12,0 0,12 -12,0 z M 144,156 l 12,0 0,12 -12,0 z M 156,156 l 12,0 0,12 -12,0 z M 168,156 l 12,0 0,12 -12,0 z M 180,156 l 12,0 0,12 -12,0 z M 228,156 l 12,0 0,12 -12,0 z M 240,156 l 12,0 0,12 -12,0 z M 252,156 l 12,0 0,12 -12,0 z M 276,156 l 12,0 0,12 -12,0 z M 312,156 l 12,0 0,12 -12,0 z M 324,156 l 12,0 0,12 -12,0 z M 372,156 l 12,0 0,12 -12,0 z M 384,156 l 12,0 0,12 -12,0 z M 0,168 l 12,0 0,12 -12,0 z M 36,168 l 12,0 0,12 -12,0 z M 60,168 l 12,0 0,12 -12,0 z M 72,168 l 12,0 0,12 -12,0 z M 84,168 l 12,0 0,12 -12,0 z M 96,168 l 12,0 0,12 -12,0 z M 108,168 l 12,0 0,12 -12,0 z M 120,168 l 12,0 0,12 -12,0 z M 156,168 l 12,0 0,12 -12,0 z M 168,168 l 12,0 0,12 -12,0 z M 180,168 l 12,0 0,12 -12,0 z M 192,168 l 12,0 0,12 -12,0 z M 240,168 l 12,0 0,12 -12,0 z M 288,168 l 12,0 0,12 -12,0 z M 300,168 l 12,0 0,12 -12,0 z M 312,168 l 12,0 0,12 -12,0 z M 324,168 l 12,0 0,12 -12,0 z M 336,168 l 12,0 0,12 -12,0 z M 372,168 l 12,0 0,12 -12,0 z M 12,180 l 12,0 0,12 -12,0 z M 60,180 l 12,0 0,12 -12,0 z M 96,180 l 12,0 0,12 -12,0 z M 144,180 l 12,0 0,12 -12,0 z M 156,180 l 12,0 0,12 -12,0 z M 180,180 l 12,0 0,12 -12,0 z M 228,180 l 12,0 0,12 -12,0 z M 252,180 l 12,0 0,12 -12,0 z M 264,180 l 12,0 0,12 -12,0 z M 300,180 l 12,0 0,12 -12,0 z M 312,180 l 12,0 0,12 -12,0 z M 324,180 l 12,0 0,12 -12,0 z M 360,180 l 12,0 0,12 -12,0 z M 12,192 l 12,0 0,12 -12,0 z M 24,192 l 12,0 0,12 -12,0 z M 36,192 l 12,0 0,12 -12,0 z M 72,192 l 12,0 0,12 -12,0 z M 84,192 l 12,0 0,12 -12,0 z M 96,192 l 12,0 0,12 -12,0 z M 108,192 l 12,0 0,12 -12,0 z M 120,192 l 12,0 0,12 -12,0 z M 144,192 l 12,0 0,12 -12,0 z M 168,192 l 12,0 0,12 -12,0 z M 180,192 l 12,0 0,12 -12,0 z M 204,192 l 12,0 0,12 -12,0 z M 228,192 l 12,0 0,12 -12,0 z M 264,192 l 12,0 0,12 -12,0 z M 288,192 l 12,0 0,12 -12,0 z M 300,192 l 12,0 0,12 -12,0 z M 324,192 l 12,0 0,12 -12,0 z M 336,192 l 12,0 0,12 -12,0 z M 372,192 l 12,0 0,12 -12,0 z M 0,204 l 12,0 0,12 -12,0 z M 24,204 l 12,0 0,12 -12,0 z M 48,204 l 12,0 0,12 -12,0 z M 60,204 l 12,0 0,12 -12,0 z M 120,204 l 12,0 0,12 -12,0 z M 180,204 l 12,0 0,12 -12,0 z M 192,204 l 12,0 0,12 -12,0 z M 204,204 l 12,0 0,12 -12,0 z M 216,204 l 12,0 0,12 -12,0 z M 228,204 l 12,0 0,12 -12,0 z M 240,204 l 12,0 0,12 -12,0 z M 276,204 l 12,0 0,12 -12,0 z M 312,204 l 12,0 0,12 -12,0 z M 348,204 l 12,0 0,12 -12,0 z M 372,204 l 12,0 0,12 -12,0 z M 384,204 l 12,0 0,12 -12,0 z M 12,216 l 12,0 0,12 -12,0 z M 72,216 l 12,0 0,12 -12,0 z M 84,216 l 12,0 0,12 -12,0 z M 120,216 l 12,0 0,12 -12,0 z M 132,216 l 12,0 0,12 -12,0 z M 144,216 l 12,0 0,12 -12,0 z M 204,216 l 12,0 0,12 -12,0 z M 252,216 l 12,0 0,12 -12,0 z M 264,216 l 12,0 0,12 -12,0 z M 300,216 l 12,0 0,12 -12,0 z M 312,216 l 12,0 0,12 -12,0 z M 348,216 l 12,0 0,12 -12,0 z M 372,216 l 12,0 0,12 -12,0 z M 0,228 l 12,0 0,12 -12,0 z M 36,228 l 12,0 0,12 -12,0 z M 84,228 l 12,0 0,12 -12,0 z M 120,228 l 12,0 0,12 -12,0 z M 132,228 l 12,0 0,12 -12,0 z M 168,228 l 12,0 0,12 -12,0 z M 192,228 l 12,0 0,12 -12,0 z M 216,228 l 12,0 0,12 -12,0 z M 228,228 l 12,0 0,12 -12,0 z M 252,228 l 12,0 0,12 -12,0 z M 300,228 l 12,0 0,12 -12,0 z M 360,228 l 12,0 0,12 -12,0 z M 12,240 l 12,0 0,12 -12,0 z M 36,240 l 12,0 0,12 -12,0 z M 48,240 l 12,0 0,12 -12,0 z M 72,240 l 12,0 0,12 -12,0 z M 132,240 l 12,0 0,12 -12,0 z M 204,240 l 12,0 0,12 -12,0 z M 240,240 l 12,0 0,12 -12,0 z M 264,240 l 12,0 0,12 -12,0 z M 336,240 l 12,0 0,12 -12,0 z M 372,240 l 12,0 0,12 -12,0 z M 0,252 l 12,0 0,12 -12,0 z M 12,252 l 12,0 0,12 -12,0 z M 144,252 l 12,0 0,12 -12,0 z M 156,252 l 12,0 0,12 -12,0 z M 168,252 l 12,0 0,12 -12,0 z M 180,252 l 12,0 0,12 -12,0 z M 216,252 l 12,0 0,12 -12,0 z M 228,252 l 12,0 0,12 -12,0 z M 240,252 l 12,0 0,12 -12,0 z M 252,252 l 12,0 0,12 -12,0 z M 276,252 l 12,0 0,12 -12,0 z M 312,252 l 12,0 0,12 -12,0 z M 348,252 l 12,0 0,12 -12,0 z M 372,252 l 12,0 0,12 -12,0 z M 384,252 l 12,0 0,12 -12,0 z M 0,264 l 12,0 0,12 -12,0 z M 24,264 l 12,0 0,12 -12,0 z M 36,264 l 12,0 0,12 -12,0 z M 60,264 l 12,0 0,12 -12,0 z M 72,264 l 12,0 0,12 -12,0 z M 96,264 l 12,0 0,12 -12,0 z M 156,264 l 12,0 0,12 -12,0 z M 168,264 l 12,0 0,12 -12,0 z M 180,264 l 12,0 0,12 -12,0 z M 240,264 l 12,0 0,12 -12,0 z M 252,264 l 12,0 0,12 -12,0 z M 300,264 l 12,0 0,12 -12,0 z M 312,264 l 12,0 0,12 -12,0 z M 324,264 l 12,0 0,12 -12,0 z M 348,264 l 12,0 0,12 -12,0 z M 372,264 l 12,0 0,12 -12,0 z M 0,276 l 12,0 0,12 -12,0 z M 36,276 l 12,0 0,12 -12,0 z M 144,276 l 12,0 0,12 -12,0 z M 156,276 l 12,0 0,12 -12,0 z M 192,276 l 12,0 0,12 -12,0 z M 228,276 l 12,0 0,12 -12,0 z M 240,276 l 12,0 0,12 -12,0 z M 252,276 l 12,0 0,12 -12,0 z M 264,276 l 12,0 0,12 -12,0 z M 276,276 l 12,0 0,12 -12,0 z M 288,276 l 12,0 0,12 -12,0 z M 300,276 l 12,0 0,12 -12,0 z M 312,276 l 12,0 0,12 -12,0 z M 324,276 l 12,0 0,12 -12,0 z M 336,276 l 12,0 0,12 -12,0 z M 348,276 l 12,0 0,12 -12,0 z M 360,276 l 12,0 0,12 -12,0 z M 0,288 l 12,0 0,12 -12,0 z M 36,288 l 12,0 0,12 -12,0 z M 48,288 l 12,0 0,12 -12,0 z M 72,288 l 12,0 0,12 -12,0 z M 108,288 l 12,0 0,12 -12,0 z M 120,288 l 12,0 0,12 -12,0 z M 144,288 l 12,0 0,12 -12,0 z M 168,288 l 12,0 0,12 -12,0 z M 180,288 l 12,0 0,12 -12,0 z M 192,288 l 12,0 0,12 -12,0 z M 204,288 l 12,0 0,12 -12,0 z M 216,288 l 12,0 0,12 -12,0 z M 228,288 l 12,0 0,12 -12,0 z M 264,288 l 12,0 0,12 -12,0 z M 276,288 l 12,0 0,12 -12,0 z M 288,288 l 12,0 0,12 -12,0 z M 300,288 l 12,0 0,12 -12,0 z M 312,288 l 12,0 0,12 -12,0 z M 324,288 l 12,0 0,12 -12,0 z M 336,288 l 12,0 0,12 -12,0 z M 384,288 l 12,0 0,12 -12,0 z M 96,300 l 12,0 0,12 -12,0 z M 204,300 l 12,0 0,12 -12,0 z M 216,300 l 12,0 0,12 -12,0 z M 228,300 l 12,0 0,12 -12,0 z M 240,300 l 12,0 0,12 -12,0 z M 252,300 l 12,0 0,12 -12,0 z M 288,300 l 12,0 0,12 -12,0 z M 336,300 l 12,0 0,12 -12,0 z M 348,300 l 12,0 0,12 -12,0 z M 360,300 l 12,0 0,12 -12,0 z M 384,300 l 12,0 0,12 -12,0 z M 0,312 l 12,0 0,12 -12,0 z M 12,312 l 12,0 0,12 -12,0 z M 24,312 l 12,0 0,12 -12,0 z M 36,312 l 12,0 0,12 -12,0 z M 48,312 l 12,0 0,12 -12,0 z M 60,312 l 12,0 0,12 -12,0 z M 72,312 l 12,0 0,12 -12,0 z M 96,312 l 12,0 0,12 -12,0 z M 108,312 l 12,0 0,12 -12,0 z M 120,312 l 12,0 0,12 -12,0 z M 132,312 l 12,0 0,12 -12,0 z M 144,312 l 12,0 0,12 -12,0 z M 180,312 l 12,0 0,12 -12,0 z M 240,312 l 12,0 0,12 -12,0 z M 276,312 l 12,0 0,12 -12,0 z M 288,312 l 12,0 0,12 -12,0 z M 312,312 l 12,0 0,12 -12,0 z M 336,312 l 12,0 0,12 -12,0 z M 348,312 l 12,0 0,12 -12,0 z M 372,312 l 12,0 0,12 -12,0 z M 0,324 l 12,0 0,12 -12,0 z M 72,324 l 12,0 0,12 -12,0 z M 108,324 l 12,0 0,12 -12,0 z M 120,324 l 12,0 0,12 -12,0 z M 132,324 l 12,0 0,12 -12,0 z M 168,324 l 12,0 0,12 -12,0 z M 228,324 l 12,0 0,12 -12,0 z M 240,324 l 12,0 0,12 -12,0 z M 252,324 l 12,0 0,12 -12,0 z M 276,324 l 12,0 0,12 -12,0 z M 288,324 l 12,0 0,12 -12,0 z M 336,324 l 12,0 0,12 -12,0 z M 348,324 l 12,0 0,12 -12,0 z M 360,324 l 12,0 0,12 -12,0 z M 384,324 l 12,0 0,12 -12,0 z M 0,336 l 12,0 0,12 -12,0 z M 24,336 l 12,0 0,12 -12,0 z M 36,336 l 12,0 0,12 -12,0 z M 48,336 l 12,0 0,12 -12,0 z M 72,336 l 12,0 0,12 -12,0 z M 96,336 l 12,0 0,12 -12,0 z M 108,336 l 12,0 0,12 -12,0 z M 132,336 l 12,0 0,12 -12,0 z M 180,336 l 12,0 0,12 -12,0 z M 192,336 l 12,0 0,12 -12,0 z M 204,336 l 12,0 0,12 -12,0 z M 216,336 l 12,0 0,12 -12,0 z M 240,336 l 12,0 0,12 -12,0 z M 264,336 l 12,0 0,12 -12,0 z M 288,336 l 12,0 0,12 -12,0 z M 300,336 l 12,0 0,12 -12,0 z M 312,336 l 12,0 0,12 -12,0 z M 324,336 l 12,0 0,12 -12,0 z M 336,336 l 12,0 0,12 -12,0 z M 372,336 l 12,0 0,12 -12,0 z M 0,348 l 12,0 0,12 -12,0 z M 24,348 l 12,0 0,12 -12,0 z M 36,348 l 12,0 0,12 -12,0 z M 48,348 l 12,0 0,12 -12,0 z M 72,348 l 12,0 0,12 -12,0 z M 96,348 l 12,0 0,12 -12,0 z M 108,348 l 12,0 0,12 -12,0 z M 144,348 l 12,0 0,12 -12,0 z M 156,348 l 12,0 0,12 -12,0 z M 168,348 l 12,0 0,12 -12,0 z M 228,348 l 12,0 0,12 -12,0 z M 240,348 l 12,0 0,12 -12,0 z M 252,348 l 12,0 0,12 -12,0 z M 264,348 l 12,0 0,12 -12,0 z M 300,348 l 12,0 0,12 -12,0 z M 324,348 l 12,0 0,12 -12,0 z M 336,348 l 12,0 0,12 -12,0 z M 372,348 l 12,0 0,12 -12,0 z M 384,348 l 12,0 0,12 -12,0 z M 0,360 l 12,0 0,12 -12,0 z M 24,360 l 12,0 0,12 -12,0 z M 36,360 l 12,0 0,12 -12,0 z M 48,360 l 12,0 0,12 -12,0 z M 72,360 l 12,0 0,12 -12,0 z M 96,360 l 12,0 0,12 -12,0 z M 120,360 l 12,0 0,12 -12,0 z M 156,360 l 12,0 0,12 -12,0 z M 168,360 l 12,0 0,12 -12,0 z M 180,360 l 12,0 0,12 -12,0 z M 204,360 l 12,0 0,12 -12,0 z M 216,360 l 12,0 0,12 -12,0 z M 240,360 l 12,0 0,12 -12,0 z M 276,360 l 12,0 0,12 -12,0 z M 312,360 l 12,0 0,12 -12,0 z M 348,360 l 12,0 0,12 -12,0 z M 360,360 l 12,0 0,12 -12,0 z M 0,372 l 12,0 0,12 -12,0 z M 72,372 l 12,0 0,12 -12,0 z M 96,372 l 12,0 0,12 -12,0 z M 120,372 l 12,0 0,12 -12,0 z M 144,372 l 12,0 0,12 -12,0 z M 156,372 l 12,0 0,12 -12,0 z M 180,372 l 12,0 0,12 -12,0 z M 216,372 l 12,0 0,12 -12,0 z M 240,372 l 12,0 0,12 -12,0 z M 252,372 l 12,0 0,12 -12,0 z M 264,372 l 12,0 0,12 -12,0 z M 324,372 l 12,0 0,12 -12,0 z M 348,372 l 12,0 0,12 -12,0 z M 360,372 l 12,0 0,12 -12,0 z M 0,384 l 12,0 0,12 -12,0 z M 12,384 l 12,0 0,12 -12,0 z M 24,384 l 12,0 0,12 -12,0 z M 36,384 l 12,0 0,12 -12,0 z M 48,384 l 12,0 0,12 -12,0 z M 60,384 l 12,0 0,12 -12,0 z M 72,384 l 12,0 0,12 -12,0 z M 96,384 l 12,0 0,12 -12,0 z M 144,384 l 12,0 0,12 -12,0 z M 168,384 l 12,0 0,12 -12,0 z M 180,384 l 12,0 0,12 -12,0 z M 192,384 l 12,0 0,12 -12,0 z M 204,384 l 12,0 0,12 -12,0 z M 216,384 l 12,0 0,12 -12,0 z M 228,384 l 12,0 0,12 -12,0 z M 276,384 l 12,0 0,12 -12,0 z M 288,384 l 12,0 0,12 -12,0 z M 300,384 l 12,0 0,12 -12,0 z M 348,384 l 12,0 0,12 -12,0 z M 372,384 l 12,0 0,12 -12,0 z " />
	</g>
</svg>
